<?xml version="1.0" encoding="utf-8"?>
<!-- Generator: Adobe Illustrator 19.2.1, SVG Export Plug-In . SVG Version: 6.00 Build 0)  -->
<svg version="1.1" id="Layer_1" xmlns="http://www.w3.org/2000/svg" xmlns:xlink="http://www.w3.org/1999/xlink" x="0px" y="0px"
	 viewBox="0 0 137 38" style="enable-background:new 0 0 137 38;" xml:space="preserve">
<style type="text/css">
	.st0{fill:#03b585;}
	.st1{fill:#626366;}
</style>
<path class="st0" d="M29.7,11c-0.2,0.4-0.7,0.7-1.2,0.7c-0.8,0-1.4-0.6-1.4-1.4c0-0.8,0.6-1.4,1.4-1.4c0.5,0,0.9,0.3,1.2,0.7h4.4V4
	H4.5v3.4h18.6c0.2-0.4,0.7-0.7,1.2-0.7c0.8,0,1.4,0.6,1.4,1.4s-0.6,1.4-1.4,1.4c-0.5,0-0.9-0.3-1.2-0.7H4.5v8.1h2.6v-5h13.1
	c0.2-0.4,0.7-0.7,1.2-0.7c0.8,0,1.4,0.6,1.4,1.4S22.2,14,21.4,14c-0.5,0-0.9-0.3-1.2-0.7H8.6v3.8h14.6c0.2-0.4,0.7-0.7,1.2-0.7
	c0.8,0,1.4,0.6,1.4,1.4s-0.6,1.4-1.4,1.4c-0.5,0-0.9-0.3-1.2-0.7H4.5v3.8h8.1c0.2-0.4,0.7-0.7,1.2-0.7c0.8,0,1.4,0.6,1.4,1.4
	s-0.6,1.4-1.4,1.4c-0.5,0-0.9-0.3-1.2-0.7H4.5v3.8H14c0.2-0.4,0.7-0.7,1.2-0.7c0.8,0,1.4,0.6,1.4,1.4s-0.6,1.4-1.4,1.4
	c-0.5,0-0.9-0.3-1.2-0.7H4.5v4.5h15.6v-9.2c-0.4-0.2-0.7-0.7-0.7-1.2c0-0.8,0.6-1.4,1.4-1.4s1.4,0.6,1.4,1.4c0,0.5-0.3,0.9-0.7,1.2
	v9.2h3.3v-7c-0.4-0.2-0.7-0.7-0.7-1.2c0-0.8,0.6-1.4,1.4-1.4s1.4,0.6,1.4,1.4c0,0.5-0.3,0.9-0.7,1.2v7h3.3V23.1
	c-0.4-0.2-0.7-0.7-0.7-1.2c0-0.8,0.6-1.4,1.4-1.4s1.4,0.6,1.4,1.4c0,0.5-0.3,0.9-0.7,1.2v10.3h3.3V16.2h-3.7
	c-0.2,0.4-0.7,0.7-1.2,0.7c-0.8,0-1.4-0.6-1.4-1.4s0.6-1.4,1.4-1.4c0.5,0,0.9,0.3,1.2,0.7h3.7v-3.9L29.7,11L29.7,11z"/>
<path class="st1" d="M38.9,12.4h2.5L45,23.3l3.7-10.9h2.5v12.8h-1.7v-7.6c0-0.3,0-0.7,0-1.3c0-0.6,0-1.3,0-1.9l-3.7,10.8h-1.7
	l-3.7-10.8v0.4c0,0.3,0,0.8,0,1.4s0,1.1,0,1.4v7.6h-1.7V12.4z"/>
<path class="st1" d="M55.2,16v6.2c0,0.5,0.1,0.9,0.2,1.2c0.3,0.6,0.8,0.8,1.5,0.8c1.1,0,1.8-0.5,2.2-1.5c0.2-0.5,0.3-1.2,0.3-2.2V16
	H61v9.4h-1.5l0-1.4c-0.2,0.4-0.4,0.7-0.7,0.9c-0.6,0.5-1.3,0.7-2.1,0.7c-1.3,0-2.2-0.4-2.7-1.3c-0.3-0.5-0.4-1.1-0.4-1.9V16H55.2z"
	/>
<path class="st1" d="M63.2,12.6h1.6v12.8h-1.6V12.6z"/>
<path class="st1" d="M68.1,13.4h1.6V16h1.5v1.3h-1.5v6.1c0,0.3,0.1,0.5,0.3,0.7c0.1,0.1,0.3,0.1,0.6,0.1c0.1,0,0.2,0,0.2,0
	c0.1,0,0.2,0,0.3,0v1.2c-0.2,0.1-0.4,0.1-0.6,0.1s-0.4,0-0.6,0c-0.7,0-1.2-0.2-1.5-0.6c-0.3-0.4-0.4-0.9-0.4-1.5v-6.2h-1.3V16h1.3
	V13.4z"/>
<path class="st1" d="M73.1,12.6h1.6v1.8h-1.6V12.6z M73.1,16.1h1.6v9.3h-1.6V16.1z"/>
<path class="st1" d="M77,22.5c0,0.5,0.2,0.9,0.4,1.2c0.4,0.5,1.1,0.8,2.1,0.8c0.6,0,1.1-0.1,1.6-0.4c0.5-0.3,0.7-0.6,0.7-1.2
	c0-0.4-0.2-0.7-0.5-0.9c-0.2-0.1-0.7-0.3-1.4-0.4l-1.3-0.3c-0.8-0.2-1.4-0.4-1.8-0.7c-0.7-0.4-1-1-1-1.8c0-0.9,0.3-1.6,1-2.2
	c0.6-0.5,1.5-0.8,2.6-0.8c1.4,0,2.5,0.4,3.1,1.2c0.4,0.5,0.6,1.1,0.6,1.7h-1.5c0-0.4-0.2-0.7-0.4-1c-0.4-0.4-1-0.6-1.9-0.6
	c-0.6,0-1.1,0.1-1.4,0.3c-0.3,0.2-0.5,0.5-0.5,0.9c0,0.4,0.2,0.7,0.6,1c0.2,0.1,0.6,0.3,1.1,0.4l1.1,0.3c1.2,0.3,1.9,0.5,2.3,0.8
	c0.6,0.4,0.9,1,0.9,1.9c0,0.8-0.3,1.6-1,2.2s-1.6,0.9-2.9,0.9c-1.4,0-2.4-0.3-3-0.9c-0.6-0.6-0.9-1.4-0.9-2.3H77z"/>
<path class="st1" d="M85,12.6h1.6v1.8H85V12.6z M85,16.1h1.6v9.3H85V16.1z"/>
<path class="st1" d="M89,16h1.6v1.3c0.4-0.5,0.7-0.8,1-1c0.5-0.4,1.1-0.5,1.8-0.5c0.7,0,1.3,0.2,1.8,0.6c0.3,0.2,0.5,0.5,0.7,0.9
	c0.3-0.5,0.8-0.9,1.2-1.1c0.5-0.2,1-0.4,1.6-0.4c1.3,0,2.1,0.5,2.6,1.4c0.2,0.5,0.4,1.1,0.4,2v6.2h-1.6v-6.5c0-0.6-0.2-1.1-0.5-1.3
	c-0.3-0.2-0.7-0.3-1.1-0.3c-0.6,0-1.2,0.2-1.6,0.6c-0.4,0.4-0.7,1.1-0.7,2.1v5.4h-1.6v-6.1c0-0.6-0.1-1.1-0.2-1.4
	c-0.2-0.4-0.7-0.7-1.3-0.7c-0.6,0-1.1,0.2-1.6,0.7c-0.5,0.5-0.7,1.3-0.7,2.5v5H89V16z"/>
<path class="st0" d="M104.5,12.6h1.7v11.3h6.4v1.5h-8.2V12.6z"/>
<path class="st0" d="M113.9,12.6h1.6v1.8h-1.6V12.6z M113.9,16.1h1.6v9.3h-1.6V16.1z"/>
<path class="st0" d="M119.4,16l2.5,7.6l2.6-7.6h1.7l-3.5,9.4h-1.7l-3.5-9.4H119.4z"/>
<path class="st0" d="M133.2,16.3c0.6,0.3,1.1,0.7,1.4,1.2c0.3,0.5,0.5,1,0.6,1.7c0.1,0.4,0.1,1.1,0.1,2.1h-6.8c0,1,0.3,1.7,0.7,2.3
	c0.4,0.6,1.1,0.9,1.9,0.9c0.8,0,1.5-0.3,2-0.8c0.3-0.3,0.5-0.7,0.6-1.1h1.5c0,0.3-0.2,0.7-0.4,1.1s-0.5,0.8-0.8,1
	c-0.5,0.5-1.1,0.8-1.8,0.9c-0.4,0.1-0.8,0.1-1.3,0.1c-1.2,0-2.1-0.4-2.9-1.3c-0.8-0.8-1.2-2-1.2-3.6c0-1.5,0.4-2.7,1.2-3.7
	c0.8-0.9,1.9-1.4,3.2-1.4C132,15.8,132.6,16,133.2,16.3z M133.8,20c-0.1-0.7-0.2-1.2-0.4-1.6c-0.4-0.8-1.1-1.1-2.1-1.1
	c-0.7,0-1.3,0.3-1.8,0.8c-0.5,0.5-0.7,1.2-0.8,2H133.8z"/>
<g>
	<path class="st1" d="M100.8,12.4h0.6v0.1h-0.2v0.7H101v-0.7L100.8,12.4L100.8,12.4z"/>
	<path class="st1" d="M101.5,13.2v-0.8h0.1l0.3,0.7h0l0.3-0.7h0.1v0.8h-0.1v-0.7h0l-0.3,0.7h-0.1l-0.3-0.7h0L101.5,13.2L101.5,13.2z
		"/>
</g>
</svg>
